<mxfile host="app.diagrams.net" modified="2024-01-16T08:58:40.108Z" agent="Mozilla/5.0 (Windows NT 10.0; Win64; x64) AppleWebKit/537.36 (KHTML, like Gecko) Chrome/118.0.0.0 YaBrowser/23.11.0.0 Safari/537.36" version="22.1.18" etag="Uik3_-e8YzTP9sZMxHt7" type="github">
  <diagram name="Страница — 1" id="y8hIM68e8_7El5zrnZW6">
    <mxGraphModel>
      <root>
        <mxCell id="0" />
        <mxCell id="1" parent="0" />
      </root>
    </mxGraphModel>
  </diagram>
</mxfile>
